PathFileType	4	(X/Y/Z)	C:/Users/opensim2020/Desktop/walking_exp_matlab/subject06_walking12_static.trc																																																																																																																																														
DataRate	CameraRate	NumFrames	NumMarkers	Units	OrigDataRate	OrigDataStartFrame	OrigNumFrames																																																																																																																																										
100	100	6	48	mm	100	46	363																																																																																																																																										
Frame#	Time	LFHD			RFHD			LBHD			RBHD			C7			T10			CLAV			STRN			RBAK			LSHO			LUPA			LELB			LFRM			LWRA			LWRB			LFIN			RSHO			RUPA			RELB			RFRM			RWRA			RWRB			RFIN			LASI			RASI			LPSI			RPSI			LTHI			LKNE			LTIB			LANK			LHEE			LTOE			RTHI			RKNE			RTIB			RANK			RHEE			RTOE			*39			*40			*41			*42			*43			*44			*45			*46			*47		
		X1	Y1	Z1	X2	Y2	Z2	X3	Y3	Z3	X4	Y4	Z4	X5	Y5	Z5	X6	Y6	Z6	X7	Y7	Z7	X8	Y8	Z8	X9	Y9	Z9	X10	Y10	Z10	X11	Y11	Z11	X12	Y12	Z12	X13	Y13	Z13	X14	Y14	Z14	X15	Y15	Z15	X16	Y16	Z16	X17	Y17	Z17	X18	Y18	Z18	X19	Y19	Z19	X20	Y20	Z20	X21	Y21	Z21	X22	Y22	Z22	X23	Y23	Z23	X24	Y24	Z24	X25	Y25	Z25	X26	Y26	Z26	X27	Y27	Z27	X28	Y28	Z28	X29	Y29	Z29	X30	Y30	Z30	X31	Y31	Z31	X32	Y32	Z32	X33	Y33	Z33	X34	Y34	Z34	X35	Y35	Z35	X36	Y36	Z36	X37	Y37	Z37	X38	Y38	Z38	X39	Y39	Z39	X40	Y40	Z40	X41	Y41	Z41	X42	Y42	Z42	X43	Y43	Z43	X44	Y44	Z44	X45	Y45	Z45	X46	Y46	Z46	X47	Y47	Z47	X48	Y48	Z48
																																																																																																																																																	
46	0.45	392.90356	1677.85156	662.4881	406.78668	1664.755	531.6109	524.33032	1619.1842	677.21344	536.20508	1612.25867	548.13214	526.14728	1460.3584	618.38239	557.04041	1133.71033	602.48083	413.25458	1388.46033	608.5802	369.98901	1215.23706	611.00134	601.297	1291.41516	536.09851	459.94156	1415.79407	773.85822	444.27618	1216.09607	850.70874	434.42828	1105.30469	869.41681	381.42905	966.38293	900.92383	297.00247	865.6369	866.35999	355.34167	849.8009	904.09363	295.98264	781.06171	910.30804	470.39661	1420.0802	453.12332	478.21588	1226.07202	353.65396	443.59708	1112.83899	323.51962	415.71655	1000.48047	286.38705	339.43521	864.99152	286.14792	397.65439	867.12158	253.00034	353.51208	798.01343	233.04318	379.58563	973.89368	703.64783	382.70505	981.82239	484.1561	536.09326	1005.38208	678.68842	532.06842	1011.47003	512.48871	482.25589	666.5943	781.50043	501.41531	503.39224	770.92206	545.38525	252.53801	795.18701	543.3335	74.8502	771.61322	582.94647	56.33222	729.65485	395.28073	39.16061	770.45453	478.75296	650.89063	414.81165	493.93665	525.73383	430.57983	562.41638	270.02335	407.90372	575.0498	78.90826	436.59308	612.80756	51.44857	479.65701	418.48016	35.87949	431.77106	500.03302	1712.6864	613.7146	NaN	NaN	NaN	NaN	NaN	NaN	NaN	NaN	NaN	NaN	NaN	NaN	NaN	NaN	NaN	NaN	NaN	NaN	NaN	NaN	NaN	NaN	NaN	NaN
47	0.46	392.74771	1677.80566	662.50647	406.54477	1664.72632	531.60632	524.21564	1619.20691	677.2063	536.07471	1612.33264	548.16669	526.12	1460.35132	618.36011	557.17462	1133.93372	602.65796	413.20535	1388.42957	608.58563	369.96155	1215.1814	610.987	601.2439	1291.4425	536.0304	459.9462	1415.76892	773.84558	444.16714	1216.078	850.69037	434.19373	1105.32471	869.48309	381.11981	966.42535	900.99976	296.59854	865.73816	866.51093	354.92517	849.86768	904.21869	295.46109	781.12372	910.32092	470.29883	1420.07849	453.10303	478.03058	1226.10803	353.56631	443.39954	1112.74939	323.68643	415.48557	1000.55353	286.2738	339.19305	865.05078	286.07739	397.36603	867.20508	252.82233	353.18933	798.12994	232.7177	379.56091	973.87646	703.60791	382.84229	981.72467	484.17188	536.09326	1005.37592	678.66772	532.06708	1011.45886	512.44299	482.2435	666.5976	781.47717	501.38055	503.39032	770.9101	545.36273	252.55278	795.18115	543.50153	74.98411	771.80707	582.89716	56.34354	729.6698	395.27481	39.13741	770.47632	478.82211	650.89856	414.80988	493.89078	525.85199	430.27078	562.45007	270.02142	407.92294	574.99683	78.8565	436.62189	612.8139	51.42207	479.71335	418.42224	35.97907	431.58237	499.94925	1712.68298	613.80127	NaN	NaN	NaN	NaN	NaN	NaN	NaN	NaN	NaN	NaN	NaN	NaN	NaN	NaN	NaN	NaN	NaN	NaN	NaN	NaN	NaN	NaN	NaN	NaN
48	0.47	392.59326	1677.76709	662.53375	406.39166	1664.70337	531.59009	524.08496	1619.22974	677.2121	535.89703	1612.36243	548.12744	526.04053	1460.34119	618.29724	557.02563	1133.75354	602.46295	413.17151	1388.39844	608.57874	369.94318	1215.14783	611.00006	601.19678	1291.4635	535.96509	459.96173	1415.73621	773.84106	444.06723	1216.06042	850.7182	433.97687	1105.31433	869.49335	380.79944	966.47681	901.05554	296.20773	865.83606	866.55371	354.53293	850.02869	904.36444	295.00516	781.23743	910.45227	470.23972	1420.05481	453.07669	477.86508	1226.10852	353.46933	443.18741	1112.78564	323.58151	415.24857	1000.59943	286.16089	339.04413	865.12354	286.15848	397.08694	867.28021	252.68443	352.90408	798.20825	232.51724	379.50388	973.88263	703.5415	382.73755	981.76752	484.06296	536.0553	1005.39075	678.61603	532.08911	1011.44617	512.4115	482.20511	666.61646	781.47089	501.35727	503.40765	770.88422	545.33398	252.55531	795.2049	543.31384	74.87293	771.60291	582.91516	56.33343	729.66382	395.28424	39.15572	770.50464	478.83521	650.87915	414.76651	493.88965	525.84747	430.2334	562.46155	269.99524	407.94016	575.02051	78.85275	436.60413	612.80353	51.38886	479.66666	418.3327	36.05483	431.79538	499.67499	1712.70508	613.72131	NaN	NaN	NaN	NaN	NaN	NaN	NaN	NaN	NaN	NaN	NaN	NaN	NaN	NaN	NaN	NaN	NaN	NaN	NaN	NaN	NaN	NaN	NaN	NaN
49	0.48	392.43591	1677.74829	662.55188	406.25153	1664.69409	531.60754	523.96942	1619.26404	677.20105	535.78387	1612.40283	548.12598	525.97174	1460.36218	618.21948	557.14148	1133.91174	602.578	413.11865	1388.4115	608.57318	369.94754	1215.12085	610.94818	601.13928	1291.42163	535.86877	459.97809	1415.70801	773.80542	443.97711	1216.03442	850.71094	433.76651	1105.32178	869.5083	380.48422	966.54431	901.06995	295.84656	865.95483	866.61652	354.15311	850.10211	904.44775	294.5412	781.38208	910.59857	470.11472	1420.05139	453.06464	477.69852	1226.13477	353.42725	442.97314	1112.8291	323.50125	415.02817	1000.67499	286.06677	338.83328	865.21405	286.04013	396.81192	867.33081	252.51215	352.68069	798.31049	232.37231	379.44861	973.90326	703.49957	382.77222	981.76648	483.99182	536.03821	1005.37488	678.57941	532.09625	1011.41418	512.36975	482.13373	666.578	781.37946	501.32642	503.39944	770.83173	545.30273	252.54794	795.177	543.32513	74.88693	771.60815	582.9256	56.33814	729.64069	395.2998	39.1633	770.48157	478.83405	650.86719	414.72046	493.80353	525.89789	430.15298	562.44122	269.99121	407.91315	575.01569	78.83963	436.62048	612.81274	51.40556	479.69742	418.50851	35.83494	431.73611	499.49609	1712.73706	613.71686	NaN	NaN	NaN	NaN	NaN	NaN	NaN	NaN	NaN	NaN	NaN	NaN	NaN	NaN	NaN	NaN	NaN	NaN	NaN	NaN	NaN	NaN	NaN	NaN
50	0.49	392.30801	1677.71692	662.53137	406.03867	1664.69592	531.58905	523.89233	1619.29431	677.23798	535.70514	1612.44946	548.15607	525.92139	1460.3927	618.21509	557.14447	1133.93762	602.57239	413.11041	1388.37903	608.54675	369.94727	1215.09839	610.92224	601.11206	1291.46545	535.8678	459.97501	1415.7002	773.78986	443.88126	1216.0459	850.70844	433.57697	1105.35657	869.51392	380.16235	966.61584	901.14319	295.49847	866.03192	866.65961	353.76627	850.19214	904.52454	294.17288	781.54333	910.81281	470.04462	1420.07605	453.04404	477.54242	1226.19031	353.32336	442.78622	1112.88965	323.422	414.82281	1000.74658	285.95694	338.48578	865.29443	285.73209	396.578	867.41669	252.38957	352.48898	798.38885	232.22858	379.39014	973.91315	703.48236	382.92911	981.70154	483.99081	536.0058	1005.35327	678.54828	532.11084	1011.39923	512.35181	482.11804	666.62799	781.4613	501.27603	503.40701	770.82404	545.27319	252.59659	795.2052	543.30261	74.87938	771.65521	582.92615	56.34146	729.6842	395.39667	39.17789	770.55426	478.80444	650.8446	414.67468	493.84665	525.87415	430.13394	562.41272	269.97507	407.90778	575.04315	78.89282	436.57544	612.81299	51.3914	479.70758	418.33795	36.13049	431.64001	499.35254	1712.7677	613.73584	NaN	NaN	NaN	NaN	NaN	NaN	NaN	NaN	NaN	NaN	NaN	NaN	NaN	NaN	NaN	NaN	NaN	NaN	NaN	NaN	NaN	NaN	NaN	NaN
51	0.5	392.1637	1677.70166	662.54016	405.94189	1664.69678	531.58423	523.87982	1619.30981	677.31909	535.58826	1612.49463	548.13641	525.87177	1460.37256	618.11304	557.12878	1133.94861	602.54523	413.0957	1388.36133	608.51074	369.91467	1215.05554	610.90948	601.07513	1291.47998	535.81378	459.97211	1415.67456	773.75494	443.7728	1216.05225	850.68921	433.39789	1105.33533	869.49713	379.84476	966.67212	901.1803	295.15445	866.15192	866.68616	353.38934	850.21973	904.56854	293.7359	781.68756	910.84979	469.99313	1420.05823	453.03458	477.40967	1226.22278	353.26694	442.6394	1112.9436	323.37366	414.6398	1000.71307	286.02267	338.23627	865.36053	285.58426	396.32306	867.51428	252.23955	352.10617	798.61542	232.02275	379.3208	973.9245	703.4129	382.97702	981.72632	483.91885	535.99176	1005.34766	678.53589	532.12427	1011.4118	512.35742	482.06042	666.59692	781.42365	501.22461	503.40643	770.83252	545.26337	252.56967	795.21277	543.28064	74.87658	771.64197	582.90942	56.32595	729.6814	395.27985	39.16045	770.47174	478.81882	650.87518	414.63821	493.84729	525.83234	430.104	562.4248	269.9447	407.8717	575.00507	78.85042	436.58182	612.80896	51.40578	479.70718	418.48273	35.86416	431.71964	499.20389	1712.78882	613.69861	NaN	NaN	NaN	NaN	NaN	NaN	NaN	NaN	NaN	NaN	NaN	NaN	NaN	NaN	NaN	NaN	NaN	NaN	NaN	NaN	NaN	NaN	NaN	NaN
